<?xml version="1.0" encoding="utf-8"?>
<!-- Generator: Adobe Illustrator 18.1.1, SVG Export Plug-In . SVG Version: 6.00 Build 0)  -->
<svg version="1.1" id="Слой_1" xmlns="http://www.w3.org/2000/svg" xmlns:xlink="http://www.w3.org/1999/xlink" x="0px" y="0px"
	 viewBox="207.6 -210.5 569.8 566.9" enable-background="new 207.6 -210.5 569.8 566.9" xml:space="preserve">
<path fill="#AED5FF" d="M209-134v416.4h568.5V-134H209z M388.5,253.9H238.9V134.3h149.6L388.5,253.9L388.5,253.9z M388.5,104.3
	H238.9V-15.3h149.6L388.5,104.3L388.5,104.3z M388.5-105.9h29.9v60.5h-29.9V-105.9z M568,253.9H418.4V134.3H568V253.9z M568,104.3
	H418.4V-15.3H568V104.3z M568.7-105.9h29.9v60.5h-29.9V-105.9z M747.1,253.9H597.5V134.3h149.6V253.9z M748,104.3H598.4V-15.3H748
	V104.3z"/>
</svg>
