<?xml version="1.0" encoding="utf-8"?>
<!-- Generator: Adobe Illustrator 15.0.0, SVG Export Plug-In  -->
<!DOCTYPE svg PUBLIC "-//W3C//DTD SVG 1.1//EN" "http://www.w3.org/Graphics/SVG/1.1/DTD/svg11.dtd" [
	<!ENTITY ns_flows "http://ns.adobe.com/Flows/1.0/">
]>
<svg version="1.1"
	 xmlns="http://www.w3.org/2000/svg" xmlns:xlink="http://www.w3.org/1999/xlink" xmlns:a="http://ns.adobe.com/AdobeSVGViewerExtensions/3.0/"
	 x="0px" y="0px" width="22px" height="26px" viewBox="-0.379 0 22 26" enable-background="new -0.379 0 22 26"
	 xml:space="preserve">
<defs>
</defs>
<path fill="#D1DCE7" d="M9.647,0v8.117H0V26h4.926v-3.146h2.981V26h1.74h3.188h1.739v-3.146h2.981V26h4.927V0H9.647z M9.664,21.01
	h-6.85v-1.49h6.85V21.01z M9.664,17.781h-6.85v-1.49h6.85V17.781z M9.664,14.551h-6.85v-1.49h6.85V14.551z M9.664,11.322h-6.85
	v-1.49h6.85V11.322z M19.666,19.625h-7.203v-1.49h7.203V19.625z M19.666,16.395h-7.203v-1.49h7.203V16.395z M19.666,13.166h-7.203
	v-1.49h7.203V13.166z M19.666,9.938h-7.203v-1.49h7.203V9.938z M19.666,6.707h-7.203v-1.49h7.203V6.707z M19.666,3.479h-7.203v-1.49
	h7.203V3.479z"/>
</svg>
