<?xml version="1.0" encoding="UTF-8"?>
<!DOCTYPE svg PUBLIC "-//W3C//DTD SVG 1.1//EN" "http://www.w3.org/Graphics/SVG/1.1/DTD/svg11.dtd">
<!-- Creator: CorelDRAW X8 -->
<svg xmlns="http://www.w3.org/2000/svg" xml:space="preserve" width="4724px" height="2953px" version="1.1" style="shape-rendering:geometricPrecision; text-rendering:geometricPrecision; image-rendering:optimizeQuality; fill-rule:evenodd; clip-rule:evenodd"
viewBox="0 0 4724 2953"
 xmlns:xlink="http://www.w3.org/1999/xlink"
 xmlns:a="http://ns.adobe.com/AdobeSVGViewerExtensions/3.0/"
 enable-background="new 0 0 76 46">
 <defs>
  <style type="text/css">
   <![CDATA[
    .fil0 {fill:#AED5FF}
   ]]>
  </style>
 </defs>
 <g id="Слой_x0020_1">
  <metadata id="CorelCorpID_0Corel-Layer"/>
  <g id="_2118973246080">
   <path class="fil0" d="M4491 516l-249 0 462 -467 -4684 0 706 666 -429 0 0 1 0 254 0 122 0 132 0 123 0 131 0 123 0 132 0 122 0 132 0 122 0 132 0 123 0 132 0 122 0 102 -168 0 0 184 1117 0 1600 0 914 0 731 0 115 0 0 -184 -115 0 0 -2204zm-731 1377l548 0 0 122 -548 0 0 -122zm548 367l-548 0 0 -122 548 0 0 122zm-548 -612l548 0 0 122 -548 0 0 -122zm0 -245l548 0 0 123 -548 0 0 -123zm0 -245l548 0 0 123 -548 0 0 -123zm0 -244l548 0 0 122 -548 0 0 -122zm0 1469l548 0 0 122 -548 0 0 -122zm548 -1592l-548 0 0 -92 548 0 0 92zm-548 1836l548 0 0 93 -548 0 0 -93zm223 -2111l-223 0 -185 0 0 -284 689 0 -281 284zm-3035 1979l0 -131 0 -123 0 -132 0 -122 0 -132 0 -122 0 -132 0 -123 0 -131 0 -123 0 -132 0 -122 0 -133 298 0 0 1883 -298 0 0 -102 0 -123zm423 -2201l2082 0 0 191 -2082 0 0 -191zm-889 -62l766 0 -2 483 -264 0 6 -6 -506 -477zm-63 606l406 0 0 132 -406 0 0 -132zm0 254l406 0 0 132 -406 0 0 -132zm0 255l406 0 0 131 -406 0 0 -131zm0 254l406 0 0 132 -406 0 0 -132zm0 254l406 0 0 132 -406 0 0 -132zm0 254l406 0 0 132 -406 0 0 -132zm0 255l406 0 0 132 -406 0 0 -132zm0 254l406 0 0 102 -406 0 0 -102zm1011 -1919l1416 0 0 2021 -1416 0 0 -2021zm1600 0l547 0 0 2021 -547 0 0 -2021z"/>
  </g>
 </g>
</svg>
