<svg width="364" height="72" viewBox="0 0 364 72" fill="none" xmlns="http://www.w3.org/2000/svg">
<path d="M170.1 6.59995C169.1 7.39995 168.4 8.59995 168.1 9.99995C167.9 11.3 168.1 12.9 169 14.3C169.1 14.4 169.2 14.6 169.3 14.7C169.7 15.2 170.2 15.7 170.7 16.3C176.3 21.5 183.1 25.3 188.9 28.2C192.9 30.2 195.2 32.4 196.1 35.7999C197.4 29.5999 196.1 26.5 194.9 24.7C192.8 21.3 189.4 19.7 189.1 19.5C184.3 16.8 177.7 13.6 173.7 10.2C172.2 8.89995 171 7.59995 170.5 6.19995C170.4 6.29995 170.2 6.39995 170.1 6.59995Z" fill="url(#paint0_linear)"/>
<path d="M167.5 17.8C166 19.2 165 21.3001 165 23.1C165 24.5001 165.2 25.9001 166.5 28.1C171.3 36.3 186.6 42.7001 190.4 45C193.2 46.7001 195.5 49.2001 196.3 53C197 48.7001 197.2 44.1 196 41.3C194.5 37.8 192.4 35.9001 189.3 34.2001C184.3 31.5001 177.2 27.4 171.8 22.5C169.9 21 168.3 19.5 167.5 17.8Z" fill="url(#paint1_linear)"/>
<path d="M179.6 10.2C176.2 12.3 171.3 14.1 167.6 17.8C166 19.2 165 21.3 165 23.1C165 24.5 165.2 25.9 166.5 28.1C166.5 26.4 168.2 23.8 171.5 21.9C175 19.8 181 16.9 184.7 12.7C187 10.1 185.6 6.89998 182.8 6.09998C183.4 7.89998 180.8 9.39998 179.6 10.2Z" fill="url(#paint2_linear)"/>
<path d="M176.2 2.9C174.5 3.7 172.4 4.7 170.5 6.1C170.3 6.2 170.2 6.4 170 6.5C169 7.3 168.3 8.5 168 9.9C167.8 11.2 168 12.8 168.9 14.2C169 14.3 169.1 14.5 169.2 14.6C169.3 12.5 170.9 11 173.5 9.7C176.1 8.3 178.5 6.6 180 5.1C181.8 3.2 180.3 0.3 178.6 0C179 1.5 177.4 2.4 176.2 2.9Z" fill="url(#paint3_linear)"/>
<path d="M163.7 33C160.5 37.5 160.7 41.2 162.8 44.5C166.4 50 175.4 54.2 182.6 57.8C186.1 59.6 189.3 61.5 191.9 64.5C193.6 66.5 195.1 68.9 196.1 72H196.2C197 67.6 196.9 62 195.8 58.9C194.8 55.9 192.6 52.8 188.2 50C182.5 46.4 173.7 43.1 168.5 38.2C166.5 36.1 164.5 34.6 163.7 33C163.8 33 163.8 33 163.7 33Z" fill="url(#paint4_linear)"/>
<path d="M184.7 18.3C179.3 22.3 168.7 27.3 163.8 32.9C163.8 32.9 163.8 33 163.7 33C160.5 37.5 160.7 41.2 162.8 44.5C162.8 42.8 165.3 40.4 168.6 37.8C174.4 33.1 184.7 28.9 190.5 21.4C192.6 18.7 191.2 14.3 188.1 13.1C188.8 14.8 186.9 16.6 184.7 18.3Z" fill="url(#paint5_linear)"/>
<path d="M219.231 20V26.4286H220V30H217.115V28.5714H212.885V30H210V26.4286H210.769C211.346 25.3571 211.538 24.1071 211.538 22.1429V20H219.231ZM214.423 21.9643V22.8571C214.423 24.2857 214.231 25.5357 213.654 26.4286H216.154V21.9643H214.423Z" fill="#0767B0"/>
<path d="M226.94 20L230 29H227.3L226.94 27.8511H224.06L223.7 29H221L224.06 20H226.94ZM226.4 25.9362L225.5 22.6808L224.6 25.9362H226.4Z" fill="#0767B0"/>
<path d="M240 20V28.8125H237.245V22.0625H235.224V24.5C235.224 28.0625 234.122 29 232.469 29C231.918 29 231.551 29 231 28.8125V26.75C231.184 26.75 231.367 26.75 231.735 26.75C232.286 26.75 232.653 26.5625 232.653 24.5V20H240Z" fill="#0767B0"/>
<path d="M244.429 23.0638H245.929C248.5 23.0638 250 24.0213 250 26.1277C250 28.0426 248.5 29 245.714 29H241V20H244.214V23.0638H244.429ZM244.429 26.7021H245.714C246.571 26.7021 247.214 26.5106 247.214 25.9362C247.214 25.1702 246.357 25.1702 245.5 25.1702H244.643V26.7021H244.429Z" fill="#0767B0"/>
<path d="M254 23.2553H257V20H260V29H257V25.3617H254V29H251V20H254V23.2553Z" fill="#0767B0"/>
<path d="M270 20V22.1064H264.692V23.4468H269.077V25.5532H264.692V26.8936H270V29H261V20H270Z" fill="#0767B0"/>
<path d="M271 20H275.605C277.907 20 279.581 20.383 279.581 22.2979C279.581 23.2553 278.953 23.8298 278.326 24.2128C279.372 24.4043 280 25.3617 280 26.3191C280 28.4255 278.326 29 275.814 29H271V20ZM274.14 23.6383H275.395C276.023 23.6383 276.442 23.4468 276.442 22.8723C276.442 22.1064 275.814 22.1064 275.186 22.1064H274.14V23.6383ZM274.14 26.8936H275.605C276.442 26.8936 277.07 26.7021 277.07 26.1277C277.07 25.3617 276.233 25.3617 275.395 25.3617H274.349V26.8936H274.14Z" fill="#0767B0"/>
<path d="M290 24.4136C290 27.3489 288.02 29 285.5 29C282.8 29 281 27.3489 281 24.4136C281 21.6618 282.8 20.0107 285.5 20.0107C288.56 19.8273 290 22.0287 290 24.4136ZM283.88 24.4136C283.88 25.5144 284.24 26.982 285.5 26.982C286.76 26.982 287.12 25.8813 287.12 24.4136C287.12 23.3129 286.58 22.0287 285.5 22.0287C284.24 22.0287 283.88 23.3129 283.88 24.4136Z" fill="#0767B0"/>
<path d="M297.128 23.6C297.128 22.7 296.362 22.16 295.596 22.16C294.638 22.16 293.872 23.06 293.872 24.68C293.872 25.94 294.064 27.02 295.596 27.02C296.553 27.02 296.936 26.48 297.128 25.58H300C299.809 27.74 298.085 29 295.787 29C292.723 29 291 27.2 291 24.5C291 21.8 292.915 20 295.404 20C298.085 20 299.617 21.26 300 23.42H297.128V23.6Z" fill="#0767B0"/>
<path d="M307.07 29H303.93V22.1064H301V20H310V22.1064H307.07V29Z" fill="#0767B0"/>
<path d="M320 24.4136C320 27.3489 318.02 29 315.5 29C312.8 29 311 27.3489 311 24.4136C311 21.6618 312.8 20.0107 315.5 20.0107C318.56 19.8273 320 22.0287 320 24.4136ZM313.88 24.4136C313.88 25.5144 314.24 26.982 315.5 26.982C316.76 26.982 317.12 25.8813 317.12 24.4136C317.12 23.3129 316.58 22.0287 315.5 22.0287C314.24 22.0287 313.88 23.3129 313.88 24.4136Z" fill="#0767B0"/>
<path d="M324.14 20.375V22.625C324.14 23.375 324.558 23.5625 325.395 23.5625C326.023 23.5625 326.651 23.5625 326.86 23.375V20H330V29H326.86V25.4375C326.233 25.625 325.814 25.625 324.14 25.625C322.674 25.625 321 24.875 321 22.8125V20H324.14V20.375Z" fill="#0767B0"/>
<path d="M334.13 23.2553H336.87V20H340V29H336.87V25.3617H334.13V29H331V20H334.13V23.2553Z" fill="#0767B0"/>
<path d="M344.023 23.1429H345.535C347.953 23.1429 349.465 24.1429 349.465 26.1429C349.465 28.1429 347.953 29 345.535 29H341V20H344.174V23.1429H344.023ZM344.023 26.8571H345.233C345.988 26.8571 346.593 26.7143 346.593 26C346.593 25.1429 345.837 25.1429 344.93 25.1429H344.174V26.8571H344.023ZM354 29H350.826V20H354V29Z" fill="#0767B0"/>
<path d="M364 20.2647V29H361V26.3309L361.2 24.1956L357.8 29H355V20.2647H356.5H358V23.3059L357.8 25.4412L361.2 20.2647H364ZM358.3 18C358.3 18.7118 359.1 18.7118 359.7 18.7118C360.5 18.7118 360.9 18.5339 360.9 18H361.9C361.9 19.2456 360.7 19.7794 359.5 19.7794C358.1 19.7794 357.3 19.2456 357.1 18H358.3Z" fill="#0767B0"/>
<path d="M217.988 34V34.9844H218.771C221.59 34.9844 223 36.5313 223 38.3594C223 40.3281 221.747 41.7344 218.928 41.7344H218.145V43H214.855V41.7344H214.072C211.253 41.7344 210 40.3281 210 38.3594C210 36.5313 211.253 34.9844 214.229 34.9844H215.012V34H217.988ZM214.699 37.0938H214.229C213.289 37.0938 212.819 37.5156 212.819 38.3594C212.819 39.0625 213.133 39.625 214.072 39.625H214.699V37.0938ZM217.988 39.4844H218.614C219.398 39.4844 219.867 38.9219 219.867 38.2188C219.867 37.375 219.398 36.9531 218.458 36.9531H217.988V39.4844Z" fill="#0767B0"/>
<path d="M232.827 34V36H227.462V37.2857H231.962V39.4286H227.462V40.8571H233V43H224V34H232.827Z" fill="#0767B0"/>
<path d="M243.13 34V40.6667H244V44H241.101V42.75H236.899V44H234V40.6667H234.725C235.304 39.4167 235.594 38.1667 235.594 36.2222V34H243.13ZM238.348 35.9444V36.9167C238.348 38.3056 238.203 39.6944 237.623 40.6667H240.232V35.9444H238.348Z" fill="#0767B0"/>
<path d="M253.66 34V36H248.566V37.2857H252.981V39.4286H248.566V40.8571H254V43H245V34H253.66Z" fill="#0767B0"/>
<path d="M258.316 43H255V34H259.737C262.579 34 264 35.1429 264 37C264 39 262.737 40.1429 259.895 40.1429H258.316V43ZM258.316 38H259.737C260.526 38 261 37.7143 261 37C261 36.1429 259.895 36 259.263 36H258.316V38Z" fill="#0767B0"/>
<path d="M269.864 34L273 43H270.136L269.864 41.8571H267L266.727 43H264L267.136 34H269.864ZM269.318 39.8571L268.364 36.5714L267.545 39.8571H269.318Z" fill="#0767B0"/>
<path d="M283 34V42.8594H280.179V35.9687H278.164V38.5C278.164 42.0156 277.09 43 275.478 43C274.94 43 274.537 43 274 42.8594V40.75C274.134 40.75 274.269 40.8906 274.672 40.8906C275.209 40.8906 275.478 40.6094 275.478 38.5V34H283Z" fill="#0767B0"/>
<path d="M287.214 37.1429H288.821C291.393 37.1429 293 38.1429 293 40.1429C293 42.1429 291.393 43 288.821 43H284V34H287.375V37.1429H287.214ZM287.214 40.8571H288.5C289.304 40.8571 289.946 40.7143 289.946 40C289.946 39.1429 289.143 39.1429 288.179 39.1429H287.375V40.8571H287.214Z" fill="#0767B0"/>
<path d="M297 37.1429H300V34H303V43H300V39.1429H297V43H294V34H297V37.1429Z" fill="#0767B0"/>
<path d="M307.023 37.1429H308.535C310.953 37.1429 312.465 38.1429 312.465 40.1429C312.465 42.1429 310.953 43 308.535 43H304V34H307.174V37.1429H307.023ZM307.023 40.8571H308.233C308.988 40.8571 309.593 40.7143 309.593 40C309.593 39.1429 308.837 39.1429 307.93 39.1429H307.174V40.8571H307.023ZM317 43H313.826V34H317V43Z" fill="#0767B0"/>
<path d="M327 34.2647V43H324V40.3309L324.2 38.1956L320.8 43H318V34.2647H319.5H321V37.3059L320.8 39.4412L324.2 34.2647H327ZM321.3 32C321.3 32.7118 322.1 32.7118 322.7 32.7118C323.5 32.7118 323.9 32.5339 323.9 32H324.9C324.9 33.2456 323.7 33.7794 322.5 33.7794C321.1 33.7794 320.3 33.2456 320.1 32H321.3Z" fill="#0767B0"/>
<path d="M213.429 48L215 51.4714L216.571 48H220L216.429 54.8143C215.571 56.3571 214.714 57 213.571 57C213 57 212.429 56.8714 212.143 56.7429V54.8143C212.286 54.8143 212.429 54.9429 212.857 54.9429C213.143 54.9429 213.429 54.8143 213.571 54.4286L210 48H213.429Z" fill="#0767B0"/>
<path d="M224 51.1765H226.864V48H230V57H226.864V53.2941H224V57H221V48H224V51.1765Z" fill="#0767B0"/>
<path d="M240 48V57H237.092V54.2206L237.231 51.8382L233.908 57H231V48H233.908V50.9118L233.769 53.1618L237.231 48H240Z" fill="#0767B0"/>
<path d="M241.145 48H245.79C247.968 48 249.71 48.5217 249.71 50.2174C249.71 51.1304 248.984 51.7826 248.403 52.1739C249.419 52.4348 250 53.2174 250 54.2609C250 56.2174 248.258 57 245.79 57H241V48H241.145ZM244.339 51.5217H245.645C246.226 51.5217 246.806 51.2609 246.806 50.7391C246.806 50.087 246.226 50.087 245.5 50.087H244.339V51.5217ZM244.339 54.7826H245.79C246.516 54.7826 247.242 54.6522 247.242 54C247.242 53.2174 246.516 53.2174 245.5 53.2174H244.484V54.7826H244.339Z" fill="#0767B0"/>
<path d="M260 48V50.1177H254.536V51.4412H259.036V53.5588H254.536V54.8824H260V57H251V48L260 48Z" fill="#0767B0"/>
<path d="M264.194 57H261V48H265.79C268.694 48 270 49.1912 270 51.0441C270 53.0294 268.694 54.2206 265.935 54.2206H264.339V57H264.194ZM264.194 52.1029H265.5C266.226 52.1029 266.806 51.8382 266.806 51.0441C266.806 50.25 265.79 50.1176 265.065 50.1176H264.194V52.1029Z" fill="#0767B0"/>
<path d="M277.353 51.5C277.221 50.625 276.691 50.125 275.765 50.125C274.706 50.125 274.044 51 274.044 52.625C274.044 53.875 274.309 55 275.765 55C276.691 55 277.221 54.375 277.221 53.5H280C279.735 55.75 278.015 57 275.765 57C272.853 57 271 55.25 271 52.5C271 49.75 272.985 48 275.5 48C278.279 48 279.735 49.25 280 51.5H277.353Z" fill="#0767B0"/>
<path d="M290 48V57H287V54.2206L287.273 51.8382L283.864 57H281V48H284V50.9118L283.727 53.1618L287.136 48H290Z" fill="#0767B0"/>
<path d="M297.935 57H294.226V50.1176H291V48H301V50.1176H297.935V57Z" fill="#0767B0"/>
<path d="M311 48V50.1176H305.474V51.4412H309.895V53.5588H305.474V54.8823H311V57H302V48H311Z" fill="#0767B0"/>
<path d="M318.097 57H314.903V50.1176H312V48H321V50.1176H318.097V57Z" fill="#0767B0"/>
<path d="M33.9884 20V45.4639H37V57H26.3876V53.2015H10.6124V57H0V45.4639H2.72481C5.01938 40.962 5.73643 36.038 5.73643 28.5817V20H33.9884ZM16.3488 27.7376V31.3954C16.3488 36.8821 15.7752 42.0875 13.624 45.4639H22.9457V27.7376H16.3488Z" fill="#0767B0"/>
<path d="M41 20H57.1488C64.7907 20 70.8465 21.6851 70.8465 28.2851C70.8465 31.6553 68.5395 34.183 66.3767 35.4468C69.9814 36.4298 72 39.3787 72 43.0298C72 50.4723 66.2326 53 57.4372 53H41V20ZM52.1023 33.2H56.7163C58.8791 33.2 60.4651 32.217 60.4651 30.2511C60.4651 27.7234 58.3023 27.583 55.9954 27.583H52.1023V33.2ZM52.1023 45.417H57.0047C59.7442 45.417 61.7628 44.8553 61.7628 42.3277C61.7628 39.3787 59.1674 39.2383 55.707 39.2383H52.1023V45.417Z" fill="#0767B0"/>
<path d="M101.199 20V23.7915H103.63C112.949 23.7915 117 29.4085 117 36.1489C117 43.3106 112.814 48.5064 103.765 48.5064H101.199V53H90.8006V48.5064H88.2347C79.0514 48.5064 75 43.3106 75 36.1489C75 29.4085 79.1865 23.7915 88.3698 23.7915H90.8006V20H101.199ZM90.8006 31.5149H89.4502C86.209 31.5149 84.9936 33.0596 84.9936 36.1489C84.9936 38.9574 86.209 40.783 88.91 40.783H90.9357V31.5149H90.8006ZM101.199 40.783H103.225C105.926 40.783 107.141 38.9574 107.141 36.1489C107.141 33.0596 105.926 31.5149 102.685 31.5149H101.334V40.783H101.199Z" fill="#0767B0"/>
<path d="M129.336 20L134.787 32.669L140.094 20H152L139.52 45.0655C136.652 50.7869 133.783 52.6941 129.623 52.9665C127.758 53.1028 125.32 52.8303 122.307 52.013V44.6568C124.316 45.0655 125.463 45.2017 126.754 45.0655C127.902 44.9293 128.762 44.5206 129.336 43.2945L117 20H129.336Z" fill="#0767B0"/>
<defs>
<linearGradient id="paint0_linear" x1="197.488" y1="21.5646" x2="166.567" y2="20.2394" gradientUnits="userSpaceOnUse">
<stop stop-color="#0668B3"/>
<stop offset="0.12" stop-color="#188CCC"/>
<stop offset="0.2909" stop-color="#0668B3"/>
<stop offset="0.62" stop-color="#0859A5"/>
<stop offset="0.8412" stop-color="#214397"/>
<stop offset="1" stop-color="#2E3790"/>
</linearGradient>
<linearGradient id="paint1_linear" x1="197.565" y1="36.3521" x2="164.067" y2="34.4379" gradientUnits="userSpaceOnUse">
<stop stop-color="#0668B3"/>
<stop offset="0.12" stop-color="#188CCC"/>
<stop offset="0.2909" stop-color="#0668B3"/>
<stop offset="0.62" stop-color="#0859A5"/>
<stop offset="0.8412" stop-color="#214397"/>
<stop offset="1" stop-color="#2E3790"/>
</linearGradient>
<linearGradient id="paint2_linear" x1="185.752" y1="28.9919" x2="164.844" y2="5.80098" gradientUnits="userSpaceOnUse">
<stop stop-color="#71D0F6"/>
<stop offset="0.2992" stop-color="#40B5E7"/>
<stop offset="0.4" stop-color="#2FABE1"/>
<stop offset="0.4466" stop-color="#2FA1DA"/>
<stop offset="0.8254" stop-color="#2E55A5"/>
<stop offset="1" stop-color="#2E3790"/>
</linearGradient>
<linearGradient id="paint3_linear" x1="179.582" y1="14.732" x2="170.674" y2="2.069" gradientUnits="userSpaceOnUse">
<stop stop-color="#71D0F6"/>
<stop offset="0.2992" stop-color="#40B5E7"/>
<stop offset="0.4" stop-color="#2FABE1"/>
<stop offset="0.4466" stop-color="#2FA1DA"/>
<stop offset="0.8254" stop-color="#2E55A5"/>
<stop offset="1" stop-color="#2E3790"/>
</linearGradient>
<linearGradient id="paint4_linear" x1="197.361" y1="53.2661" x2="159.077" y2="51.4992" gradientUnits="userSpaceOnUse">
<stop stop-color="#0668B3"/>
<stop offset="0.12" stop-color="#188CCC"/>
<stop offset="0.2909" stop-color="#0668B3"/>
<stop offset="0.62" stop-color="#0859A5"/>
<stop offset="0.8412" stop-color="#214397"/>
<stop offset="1" stop-color="#2E3790"/>
</linearGradient>
<linearGradient id="paint5_linear" x1="190.491" y1="45.9541" x2="161.705" y2="12.2352" gradientUnits="userSpaceOnUse">
<stop stop-color="#71D0F6"/>
<stop offset="0.2992" stop-color="#40B5E7"/>
<stop offset="0.4" stop-color="#2FABE1"/>
<stop offset="0.4466" stop-color="#2FA1DA"/>
<stop offset="0.8254" stop-color="#2E55A5"/>
<stop offset="1" stop-color="#2E3790"/>
</linearGradient>
</defs>
</svg>
